<svg xmlns="http://www.w3.org/2000/svg" width="12" height="16" viewBox="0 0 12 16" fill="none">
            <path d="M9.89607 0.632568H2.22298C1.07351 0.632568 0.133041 1.56557 0.133041 2.7225V13.4633C0.133041 14.6202 1.07351 15.5607 2.22298 15.5607H9.89607C11.053 15.5607 11.986 14.6202 11.986 13.4633V2.7225C11.986 1.56557 11.053 0.632568 9.89607 0.632568ZM2.9918 11.4032H9.12725C9.44074 11.4032 9.68706 11.657 9.68706 11.963C9.68706 12.2691 9.44074 12.5229 9.12725 12.5229H2.9918C2.68577 12.5229 2.43199 12.2691 2.43199 11.963C2.43199 11.657 2.68577 11.4032 2.9918 11.4032ZM2.43199 8.1265C2.43199 7.82047 2.68577 7.5667 2.9918 7.5667H9.12725C9.44074 7.5667 9.68706 7.82047 9.68706 8.1265C9.68706 8.43999 9.44074 8.68631 9.12725 8.68631H2.9918C2.68577 8.68631 2.43199 8.43999 2.43199 8.1265ZM9.12725 4.84977H2.9918C2.68577 4.84977 2.43199 4.60346 2.43199 4.28996C2.43199 3.98394 2.68577 3.73016 2.9918 3.73016H9.12725C9.44074 3.73016 9.68706 3.98394 9.68706 4.28996C9.68706 4.60346 9.44074 4.84977 9.12725 4.84977Z" fill="black"/>
            </svg>