<svg xmlns="http://www.w3.org/2000/svg" width="16" height="16" viewBox="0 0 16 16" fill="none">
            <path d="M12.9178 0.662842H3.70708C2.13216 0.662842 0.848344 1.94666 0.848344 3.52158V12.7323C0.848344 14.3072 2.13216 15.591 3.70708 15.591H12.9178C14.2762 15.591 15.4108 14.6356 15.7019 13.3667C15.7466 13.2846 15.7765 13.195 15.7765 13.098V3.52158C15.7765 1.94666 14.4927 0.662842 12.9178 0.662842ZM13.4776 8.89572C13.4776 9.20175 13.2238 9.45553 12.9178 9.45553C12.6043 9.45553 12.358 9.20175 12.358 8.89572V7.35812C12.358 7.0521 12.6043 6.79832 12.9178 6.79832C13.2238 6.79832 13.4776 7.0521 13.4776 7.35812V8.89572ZM3.14727 8.89572V7.35812C3.14727 7.0521 3.40105 6.79832 3.70708 6.79832C4.02057 6.79832 4.26688 7.0521 4.26688 7.35812V8.89572C4.26688 9.20175 4.02057 9.45553 3.70708 9.45553C3.40105 9.45553 3.14727 9.20175 3.14727 8.89572ZM11.1712 5.82799V10.4259C11.1712 10.7394 10.9248 10.9857 10.6114 10.9857C10.3053 10.9857 10.0515 10.7394 10.0515 10.4259V5.82799C10.0515 5.51449 10.3053 5.26818 10.6114 5.26818C10.9248 5.26818 11.1712 5.51449 11.1712 5.82799ZM8.87223 4.29039V11.9635C8.87223 12.2695 8.61845 12.5233 8.31243 12.5233C8.0064 12.5233 7.75262 12.2695 7.75262 11.9635V4.29039C7.75262 3.98436 8.0064 3.73058 8.31243 3.73058C8.61845 3.73058 8.87223 3.98436 8.87223 4.29039ZM6.57331 5.82799V10.4259C6.57331 10.7394 6.31953 10.9857 6.0135 10.9857C5.70001 10.9857 5.45369 10.7394 5.45369 10.4259V5.82799C5.45369 5.51449 5.70001 5.26818 6.0135 5.26818C6.31953 5.26818 6.57331 5.51449 6.57331 5.82799Z" fill="black"/>
            </svg>