<svg xmlns="http://www.w3.org/2000/svg" width="16" height="16" viewBox="0 0 16 16" fill="none">
            <path d="M13.381 2.80719C12.0076 1.4338 10.1789 0.679932 8.23829 0.679932C6.29763 0.679932 4.46893 1.4338 3.09554 2.80719C1.71468 4.18058 0.960808 6.00929 0.960808 7.95741C0.960808 8.91281 1.14741 9.85329 1.51315 10.7415C1.87889 11.6297 2.4163 12.4209 3.09554 13.1002C3.7673 13.7794 4.56596 14.3093 5.45419 14.6751C6.34241 15.0483 7.27542 15.2349 8.23829 15.2349C9.20115 15.2349 10.1342 15.0483 11.0224 14.6751C11.9106 14.3093 12.7093 13.7794 13.381 13.1002C14.0603 12.4209 14.5977 11.6297 14.9634 10.7415C15.3292 9.85329 15.5158 8.91281 15.5158 7.95741C15.5158 6.00929 14.7619 4.18058 13.381 2.80719ZM8.79809 11.1595V11.3162C8.79809 11.6223 8.54431 11.8761 8.23829 11.8761C7.93226 11.8761 7.67848 11.6223 7.67848 11.3162V11.152C7.02164 11.0475 6.43944 10.7639 6.06624 10.3385C5.90203 10.1444 5.8871 9.86075 6.03638 9.65176C6.18566 9.4353 6.45437 9.36066 6.69322 9.45023L7.67848 9.82343V8.46497C6.51408 8.28583 5.66318 7.53196 5.66318 6.61387C5.66318 5.68833 6.51408 4.94192 7.67848 4.75532V4.59857C7.67848 4.28508 7.93226 4.03877 8.23829 4.03877C8.54431 4.03877 8.79809 4.28508 8.79809 4.59857V4.75532C9.45493 4.86728 10.0371 5.15092 10.4103 5.56891C10.5745 5.76297 10.5895 6.04661 10.4402 6.26307C10.3357 6.41235 10.164 6.50192 9.98488 6.50192C9.91771 6.50192 9.85053 6.48699 9.78335 6.46459L8.79809 6.08393V7.44239C9.96249 7.62153 10.8134 8.3754 10.8134 9.30095C10.8134 10.2265 9.96249 10.9729 8.79809 11.1595Z" fill="black"/>
            </svg>